<svg width="1200" height="1000" viewBox="0 0 1200 1000" xmlns="http://www.w3.org/2000/svg">
  <!-- Background -->
  <rect width="1200" height="1000" fill="#fcfcfc" />
  
  <!-- Title -->
  <text x="600" y="40" font-family="Arial, sans-serif" font-size="28" font-weight="bold" text-anchor="middle" fill="#1A2332">DefectGPT V6.2: Hierarchical Cognitive Intelligence Architecture</text>
  <text x="600" y="70" font-family="Arial, sans-serif" font-size="16" font-style="italic" text-anchor="middle" fill="#7f8c8d">A Multi-modal, Physics-Informed Agent for Industrial Asset Management</text>

  <!-- Layer Labels -->
  <g font-family="Arial, sans-serif" font-size="14" font-weight="bold" fill="#34495e">
    <text x="20" y="160">LAYER 0: PERCEPTION</text>
    <text x="20" y="380">LAYER 1: KNOWLEDGE</text>
    <text x="20" y="620">LAYER 2: REASONING</text>
    <text x="20" y="860">LAYER 3: OPERATION</text>
  </g>

  <!-- Layer Boxes -->
  <rect x="180" y="100" width="980" height="180" rx="15" fill="#f8f9fa" stroke="#dcdde1" stroke-width="2" />
  <rect x="180" y="320" width="980" height="200" rx="15" fill="#e1f5fe" stroke="#339af0" stroke-width="2" />
  <rect x="180" y="560" width="980" height="240" rx="15" fill="#fff9db" stroke="#fab005" stroke-width="2" />
  <rect x="180" y="830" width="980" height="140" rx="15" fill="#E8F0EA" stroke="#40c057" stroke-width="2" />

  <!-- Perception Details -->
  <g transform="translate(200, 130)">
    <rect width="200" height="120" rx="8" fill="#fff" stroke="#495057" />
    <text x="100" y="30" text-anchor="middle" font-weight="bold">Heterogeneous Data</text>
    <text x="20" y="60" font-size="12">- RGB KML (8,797 items)</text>
    <text x="20" y="80" font-size="12">- Thermal IR (1,496 items)</text>
    <text x="20" y="100" font-size="12">- IFC 2X3 BIM Files</text>
    
    <path d="M 210 60 L 280 60" stroke="#495057" stroke-width="2" marker-end="url(#arrow)" />
    
    <rect x="300" width="220" height="120" rx="8" fill="#fff" stroke="#495057" />
    <text x="410" y="30" text-anchor="middle" font-weight="bold">Fusion Engine</text>
    <text x="320" y="60" font-size="12">Spatial Clustering (DBSCAN)</text>
    <text x="320" y="85" font-size="12">Semantic Mapping (BIM)</text>
    
    <path d="M 530 60 L 600 60" stroke="#495057" stroke-width="2" marker-end="url(#arrow)" />

    <rect x="620" width="320" height="120" rx="8" fill="#fff" stroke="#495057" />
    <text x="780" y="30" text-anchor="middle" font-weight="bold">Unified Defect Profile (IDP)</text>
    <text x="640" y="60" font-size="12">Hierarchical Tree Construction</text>
    <text x="640" y="85" font-size="12">Cross-Modal Gap Quantization</text>
  </g>

  <!-- Knowledge Details -->
  <g transform="translate(200, 350)">
    <rect width="280" height="140" rx="8" fill="#fff" stroke="#228be6" />
    <text x="140" y="30" text-anchor="middle" font-weight="bold">Structural Digital Twin</text>
    <text x="20" y="60" font-size="12">Load-bearing Wall Semantic Extraction</text>
    <text x="20" y="85" font-size="12">BIM Storey Height Mapping</text>
    <text x="20" y="110" font-size="12">IFC GUID Spatial Anchoring</text>

    <rect x="350" y="20" width="280" height="100" rx="8" fill="#e7f5ff" stroke="#228be6" stroke-dasharray="4" />
    <text x="490" y="45" text-anchor="middle" font-weight="bold" fill="#1864ab">Physics Rules Engine</text>
    <text x="370" y="70" font-size="12">Rule #104: Thermal-Visual Inconsistency</text>
    <text x="370" y="90" font-size="12">Rule #209: Primary Load Risk Escalation</text>
    
    <rect x="680" width="260" height="140" rx="8" fill="#fff" stroke="#228be6" />
    <text x="810" y="30" text-anchor="middle" font-weight="bold">Historical Memory</text>
    <text x="700" y="60" font-size="12">Vector Embeddings of 11 Sites</text>
    <text x="700" y="85" font-size="12">Previous Maintenance Logs</text>
  </g>

  <!-- Reasoning Details (Agent) -->
  <g transform="translate(200, 590)">
    <circle cx="50" cy="90" r="40" fill="#fff" stroke="#f59f00" stroke-width="3" />
    <text x="50" y="95" text-anchor="middle" font-weight="bold">AGENT</text>
    
    <path d="M 100 90 L 180 90" stroke="#f59f00" stroke-width="2" marker-end="url(#arrow)" />

    <rect x="200" width="500" height="180" rx="10" fill="#fffdeb" stroke="#f59f00" stroke-width="2" />
    <text x="450" y="30" text-anchor="middle" font-weight="bold">Tree of Thought (ToT) Cycle</text>
    
    <!-- ToT Branches -->
    <rect x="220" y="50" width="130" height="40" rx="5" fill="#ffffff" stroke="#f59f00" />
    <text x="285" y="75" text-anchor="middle" font-size="11">Visual Scan (Base)</text>
    
    <rect x="370" y="50" width="130" height="40" rx="5" fill="#ffffff" stroke="#f59f00" />
    <text x="435" y="75" text-anchor="middle" font-size="11">BIM Audit (S2)</text>
    
    <rect x="520" y="50" width="130" height="40" rx="5" fill="#ffffff" stroke="#f59f00" />
    <text x="585" y="75" text-anchor="middle" font-size="11">Conflict Logic (S2)</text>
    
    <rect x="250" y="110" width="400" height="50" rx="5" fill="#fcc419" stroke="#f59f00" />
    <text x="450" y="140" text-anchor="middle" font-weight="bold">Cognitive Consensus &amp; Risk Synthesis</text>

    <rect x="750" y="40" width="180" height="100" rx="8" fill="#fff" stroke="#f59f00" />
    <text x="840" y="70" text-anchor="middle" font-weight="bold">Executive Advice</text>
    <text x="765" y="95" font-size="11">Lock: GMN-F18</text>
    <text x="765" y="115" font-size="11">Score: 325.8 (Crit)</text>
  </g>

  <!-- Operation Details -->
  <g transform="translate(200, 850)">
    <rect width="300" height="100" rx="8" fill="#fff" stroke="#2b8a3e" />
    <text x="150" y="30" text-anchor="middle" font-weight="bold">UAV Mission Planner</text>
    <text x="20" y="60" font-size="12">6 Waypoints (WGS84 Z-Scan)</text>
    <text x="20" y="85" font-size="12">Optimized Solar Window (14h-16h)</text>
    
    <path d="M 320 50 L 420 50" stroke="#2b8a3e" stroke-width="2" marker-end="url(#arrow)" />

    <rect x="440" width="220" height="100" rx="8" fill="#fff" stroke="#2b8a3e" />
    <text x="550" y="30" text-anchor="middle" font-weight="bold">Management Hub</text>
    <text x="460" y="60" font-size="12">Expert Audit JSON Payload</text>
    <text x="460" y="85" font-size="12">Actionable Field Work Tickets</text>

    <!-- Feedback Loop -->
    <path d="M 680 50 C 1000 50, 1000 -400, 960 -650" stroke="#e03131" stroke-width="3" stroke-dasharray="8" fill="none" marker-end="url(#arrow_red)" />
    <text x="960" y="500" font-family="Arial, sans-serif" font-size="14" font-weight="bold" fill="#e03131" transform="rotate(-90, 960, 500)">SELF-LEARNING FEEDBACK LOOP</text>
  </g>

  <!-- Markers -->
  <defs>
    <marker id="arrow" markerWidth="10" markerHeight="10" refX="9" refY="5" orient="auto">
      <path d="M0,0 L0,10 L10,5 Z" fill="#495057" />
    </marker>
    <marker id="arrow_red" markerWidth="10" markerHeight="10" refX="9" refY="5" orient="auto">
      <path d="M0,0 L0,10 L10,5 Z" fill="#e03131" />
    </marker>
  </defs>

</svg>
